static_grf.mot
version=1
nRows=20
nColumns 19
inDegrees=yes
endheader
time	1_ground_force_vx	1_ground_force_vy	1_ground_force_vz	1_ground_force_px	1_ground_force_py	1_ground_force_pz	1_ground_torque_x	1_ground_torque_y	1_ground_torque_z	2_ground_force_vx	2_ground_force_vy	2_ground_force_vz	2_ground_force_px	2_ground_force_py	2_ground_force_pz	2_ground_torque_x	2_ground_torque_y	2_ground_torque_z
            0.892500	           -0.943402	          393.037471	          -53.982972	           -0.296816	            0.006086	           -0.376029	           -0.007140	            2.974795	           -0.408583	           -2.912369	          514.862609	           56.884917	           -0.286501	            0.005492	           -0.709774	            0.016770	           -2.964761	           -0.327564
            0.893000	           -0.713975	          392.496491	          -53.940008	           -0.296335	            0.006086	           -0.376045	           -0.005492	            3.019125	           -0.414912	           -2.913678	          515.230723	           56.933159	           -0.286287	            0.005494	           -0.710045	            0.016555	           -2.927467	           -0.323486
            0.893500	           -1.081126	          392.857541	          -54.075116	           -0.296526	            0.006087	           -0.376242	           -0.008163	            2.966077	           -0.408267	           -2.819273	          515.046647	           57.026319	           -0.286261	            0.005494	           -0.709820	            0.016210	           -2.961377	           -0.327886
            0.894000	           -0.943402	          393.037471	          -53.982972	           -0.296582	            0.006086	           -0.376173	           -0.007109	            2.961626	           -0.406774	           -3.098358	          514.492982	           57.071395	           -0.286505	            0.005491	           -0.709501	            0.017718	           -2.942173	           -0.326368
            0.894500	           -0.576706	          392.677207	          -54.031288	           -0.296652	            0.006086	           -0.376139	           -0.004520	            3.077706	           -0.423484	           -2.676188	          514.311596	           56.742062	           -0.286337	            0.005492	           -0.709534	            0.015491	           -2.976980	           -0.328439
            0.895000	           -0.989048	          391.955868	          -53.987496	           -0.296795	            0.006087	           -0.376365	           -0.007559	            2.995493	           -0.412595	           -2.911705	          514.678530	           56.884260	           -0.286493	            0.005492	           -0.709657	            0.016502	           -2.916976	           -0.322395
            0.895500	           -0.943513	          391.776170	          -54.125955	           -0.296665	            0.006087	           -0.376292	           -0.007254	            3.011906	           -0.416111	           -2.774499	          515.599969	           56.840558	           -0.286306	            0.005494	           -0.710025	            0.016181	           -3.006967	           -0.331493
            0.896000	           -0.898014	          393.038266	          -54.166510	           -0.296641	            0.006086	           -0.376097	           -0.006941	            3.037684	           -0.418638	           -2.584420	          514.863793	           56.884778	           -0.286458	            0.005493	           -0.709741	            0.015027	           -2.993559	           -0.330744
            0.896500	           -1.034794	          392.676528	          -53.892579	           -0.296726	            0.006086	           -0.376181	           -0.007952	            3.017467	           -0.414130	           -2.487959	          514.126732	           57.116750	           -0.286377	            0.005492	           -0.709565	            0.014673	           -3.032201	           -0.336861
            0.897000	           -0.622549	          392.677198	          -54.031174	           -0.296625	            0.006087	           -0.376284	           -0.004809	            3.033585	           -0.417412	           -2.777781	          516.520277	           56.937699	           -0.286222	            0.005495	           -0.710064	            0.015869	           -2.950719	           -0.325267
            0.897500	           -1.034486	          392.856174	          -53.754242	           -0.296747	            0.006085	           -0.375919	           -0.007951	            3.019384	           -0.413140	           -2.956561	          514.125877	           56.882309	           -0.286280	            0.005492	           -0.709523	            0.017162	           -2.984340	           -0.330184
            0.898000	           -0.713780	          392.676394	          -53.847523	           -0.296552	            0.006086	           -0.376122	           -0.005466	            3.006877	           -0.412332	           -2.631270	          514.863624	           56.884798	           -0.286395	            0.005493	           -0.709704	            0.015058	           -2.946440	           -0.325538
            0.898500	           -0.713876	          391.955724	          -53.942327	           -0.296708	            0.006087	           -0.376403	           -0.005503	            3.021188	           -0.415787	           -2.724970	          514.863286	           56.884838	           -0.286315	            0.005493	           -0.709813	            0.015760	           -2.977786	           -0.329002
            0.899000	           -0.943612	          392.316998	          -54.123636	           -0.296477	            0.006086	           -0.376173	           -0.007286	            3.029240	           -0.417911	           -2.631249	          514.863457	           56.931726	           -0.286424	            0.005492	           -0.709595	            0.015224	           -2.978855	           -0.329391
            0.899500	           -1.172258	          392.315970	          -53.893783	           -0.296772	            0.006087	           -0.376199	           -0.008836	            2.957080	           -0.406224	           -2.867493	          515.415094	           56.933797	           -0.286489	            0.005492	           -0.709762	            0.016222	           -2.915780	           -0.322083
            0.900000	           -1.080766	          392.136085	          -53.986496	           -0.296787	            0.006087	           -0.376311	           -0.008173	            2.965461	           -0.408263	           -2.632537	          515.231403	           57.026896	           -0.286308	            0.005493	           -0.709757	            0.015311	           -2.996556	           -0.331665
            0.900500	           -0.805628	          392.316238	          -53.940553	           -0.296568	            0.006087	           -0.376245	           -0.006184	            3.011606	           -0.414073	           -2.862923	          514.126718	           56.741485	           -0.286473	            0.005491	           -0.709415	            0.016384	           -2.942187	           -0.324714
            0.901000	           -0.713780	          392.676394	          -53.847523	           -0.296539	            0.006086	           -0.376074	           -0.005532	            3.043170	           -0.417308	           -2.540250	          515.600815	           56.840458	           -0.286318	            0.005493	           -0.709846	            0.014541	           -2.951383	           -0.325364
            0.901500	           -0.760096	          393.398037	          -53.981881	           -0.296528	            0.006085	           -0.375772	           -0.005849	            3.027404	           -0.415419	           -2.633847	          515.599640	           57.075139	           -0.286343	            0.005493	           -0.709881	            0.015283	           -2.991697	           -0.331171
            0.902000	           -1.126708	          392.676904	          -53.984063	           -0.296430	            0.006086	           -0.375954	           -0.008410	            2.931140	           -0.402965	           -2.870131	          516.151490	           56.983353	           -0.286224	            0.005495	           -0.710193	            0.016359	           -2.941961	           -0.324794
